<svg xmlns="http://www.w3.org/2000/svg" viewBox="0 0 1375.459 1015.139" height="1082.815" width="1467.157"><g transform="translate(567.965 -123.994)" id="layer1"><path id="path4190" d="M-484.696 1137.971c-6.749-1.795-12.274-5.828-15.498-11.313l-2.806-4.772-.265-126.75-.265-126.75h-3.03c-4.173 0-7.95-3.918-7.908-8.205.017-1.812 3.085-33.34 6.816-70.061 3.732-36.722 6.472-66.422 6.09-66-.38.421-2.751 9.316-5.266 19.766-10.604 44.06-16.761 70.1-20.689 87.5-6.026 26.697-5.845 26.134-9.507 29.588-3.698 3.487-10.997 5.792-15.235 4.81-7.788-1.804-14.02-8.147-15.667-15.948-.434-2.052 2.817-20.2 9.941-55.5 14.035-69.535 15.822-78.613 20.57-104.439 5.62-30.568 10.573-42.029 23.593-54.595 8.601-8.3 13.142-11.76 21.366-16.278l6.543-3.594 7.671 4.02c28.208 14.78 59.035 15.133 87.22.997l9.331-4.68 8.013 4.06c14.91 7.553 24.456 16.835 32.526 31.629 5.038 9.235 7.339 16.908 10.725 35.77 1.645 9.163 9.276 47.98 16.96 86.261 7.682 38.28 13.967 71.551 13.967 73.934 0 12.104-11.087 20.86-23.474 18.536-3.951-.742-9.9-5.45-11.963-9.47-2.011-3.918-15.683-62.172-26.075-111.101-3.8-17.893-6.044-24.817-5.023-15.5 1.791 16.341 11.535 125.964 11.535 129.768 0 3.764-.472 4.958-2.635 6.66-1.449 1.14-3.924 2.072-5.5 2.072h-2.865v251.771l-2.792 5.346c-3.453 6.61-9.453 11.34-16.224 12.793-11.568 2.48-23.222-2.6-28.184-12.286-1.999-3.901-2.426-10.283-7.915-118.124-3.192-62.7-5.821-114.338-5.844-114.75-.022-.413-3.586-.75-7.919-.75h-7.879l-.68 17.75c-1.158 30.2-3.502 76.909-6.035 120.25-1.333 22.825-2.927 51.625-3.541 64-.685 13.797-1.675 24.253-2.56 27.031-3.89 12.22-17.443 19.794-29.623 16.554zm316.551.433c-10.587-2.243-21.51-10.567-26.083-19.875l-2.772-5.643-.259-218.62-.258-218.62-4.03-.54c-5.287-.709-8.8-3.11-10.498-7.174-1.233-2.952-.387-13.539 8.046-100.673 5.184-53.555 9.65-98.91 9.926-100.787 1.93-13.153-5.263 14.524-12.972 49.914-4.19 19.235-29.719 130.154-31.132 135.263-1.87 6.76-7.514 13.773-13.572 16.864-15.955 8.14-34.826-2.615-37.351-21.287-.432-3.197 1.532-15.136 7.461-45.34 10.267-52.306 30.534-157.05 37.105-191.77 2.786-14.722 6.121-29.572 7.411-33 8.226-21.851 21.867-40.762 38.343-53.156 9.375-7.053 22.874-14.51 31.862-17.602l5.503-1.893 5.708 3.667c20.746 13.33 49.903 19.64 74.773 16.181 15.078-2.097 34.216-9.087 46.551-17.002l4.662-2.991 6.836 2.573c26.329 9.91 48.605 29.885 61.783 55.4 7.286 14.106 9.065 20.563 16.685 60.556 3.882 20.37 13.342 69.662 21.024 109.537 7.68 39.875 15.334 80.375 17.007 90 4.558 26.23 3.484 34.26-5.779 43.201-5.103 4.926-9.954 6.799-17.606 6.799-11.255 0-20.742-6.726-24.26-17.198-.794-2.366-7.488-30.627-14.875-62.802s-15.004-64.8-16.928-72.5c-1.923-7.7-5.447-22.775-7.83-33.5-2.384-10.725-4.466-18.581-4.627-17.458-.161 1.124 4.005 45.565 9.259 98.759 8.694 88.029 9.424 97.023 8.126 100.13-1.802 4.313-5.388 6.679-11.097 7.322l-4.474.504-.262 218.122-.26 218.12-2.808 5.718c-3.872 7.887-10.405 14.285-18.41 18.031-5.674 2.655-7.793 3.113-14.225 3.071-16.704-.108-29.771-9.927-34.708-26.08-1.098-3.592-3.491-52.285-9.89-201.24-4.642-108.074-8.445-197.512-8.45-198.75-.009-2.2-.257-2.25-11.42-2.25h-11.41l-.6 8.25c-.329 4.538-4.217 94.2-8.639 199.25-5.915 140.517-8.413 192.328-9.451 196.02-4.822 17.15-23.453 28.247-41.135 24.5zm785.772-.472c-5.145-1.657-9.468-5.487-12.468-11.046-2.149-3.982-2.16-4.34-2.439-78.599l-.28-74.598-15.22-.985c-16.245-1.052-19.684-2.057-24.493-7.165-1.374-1.46-3.327-4.453-4.34-6.653-3.946-8.567-3.681-9.706 20.609-88.619l22.495-73.08-.658-38.905c-.362-21.397-.909-38.654-1.215-38.347-.772.771-8.588 28.88-18.619 66.95-12.37 46.951-17.222 63.651-19.316 66.48-1.027 1.386-3.4 3.572-5.275 4.857-4.618 3.166-14.787 2.81-19.703-.69-4.135-2.945-7.205-8.934-7.205-14.056 0-5.306 9.85-48.488 22.03-96.59 5.432-21.45 12.156-49.125 14.941-61.5 6.318-28.073 7.032-30.247 13.92-42.391 6.644-11.717 15.44-21.587 24.813-27.845 10.96-7.318 10.518-7.214 15.955-3.766 17.953 11.386 47.228 15.4 69.823 9.573 5.523-1.424 14.455-4.78 20-7.513l10.018-4.94 6 3.618c8.053 4.854 16.43 11.478 19.58 15.484 5.864 7.457 10.39 14.562 13.655 21.437 3.945 8.306 14.743 50.341 28.73 111.843 4.754 20.9 10.869 47.315 13.59 58.7 2.72 11.385 4.943 21.285 4.94 22-.026 5.973-5.426 14.42-11.093 17.35-3.756 1.943-12.285 1.836-16.59-.207-5.812-2.757-7.68-7.088-14.813-34.343-3.671-14.025-8.223-31.026-10.115-37.779-1.893-6.753-5.247-19.578-7.454-28.5-5.194-20.998-9.057-35.018-9.923-36.012-.378-.435-1.002 16.283-1.387 37.15l-.698 37.94 21.966 71.35c12.081 39.243 22.498 73.471 23.148 76.062 1.771 7.058-.084 13.514-5.665 19.722-5.718 6.36-10.08 7.738-27.284 8.62l-13.413.688.663 73.13c.47 51.96.344 74.287-.437 77.129-1.707 6.21-9.314 13.029-16.109 14.44-10.472 2.173-21.83-3.003-25.415-11.583-.947-2.267-2.597-24.442-5.4-72.56-2.219-38.114-4.274-71.21-4.567-73.547l-.531-4.25h-26.59l-.602 7.75c-.33 4.262-2.241 36.1-4.245 70.75s-4.06 64.668-4.57 66.708c-2.952 11.829-17.344 20.01-28.744 16.338zm-354.133-1.48c-7.763-2.362-15.595-8.669-19.328-15.566l-2.166-4-.263-148.287c-.206-116.715-.526-148.377-1.5-148.712-.68-.234-9.797-.826-20.26-1.316-21.3-.997-24.905-1.963-32.32-8.662-6.02-5.439-9.404-13.064-9.936-22.385l-.435-7.638 31.189-100.5 31.188-100.5-1.136-50c-.625-27.5-1.394-51.575-1.71-53.5-.491-2.985-1.199-1.147-4.81 12.5-2.33 8.8-8.556 31.075-13.836 49.5-5.28 18.425-14.524 51.117-20.542 72.65-6.017 21.532-11.7 40.752-12.63 42.71-2.324 4.898-9.498 11.268-14.144 12.558-16.296 4.525-32.355-7.364-32.355-23.955 0-3.655 3.01-18.117 8.546-41.053 18.24-75.581 37.563-156.47 42.856-179.41 6.226-26.98 9.424-37.18 16.043-51.152 6.596-13.925 14.711-25.616 24.623-35.477 6.963-6.927 10.46-9.523 17.728-13.162 4.98-2.492 11.47-5.073 14.422-5.733l5.369-1.202 9.957 4.97c34.565 17.256 70.964 17.72 103.702 1.325l9.746-4.881 5.691 1.486c16.845 4.399 33.367 17.289 45.576 35.559 13.233 19.801 18.478 34.065 28.628 77.852 20.163 86.98 45.835 191.53 49.212 200.415 5.693 14.98-2.42 31.098-17.337 34.441-9.524 2.135-21.315-2.91-26.172-11.198-1.603-2.735-6.923-19.962-13.998-45.328-6.277-22.503-15.923-56.665-21.435-75.915-5.513-19.25-11.566-40.625-13.452-47.5l-3.429-12.5-.602 6.5c-.33 3.575-1.093 27.425-1.694 53l-1.093 46.5 31.259 100.5c34.824 111.966 33.836 107.87 28.703 119-3.024 6.555-9.277 13.06-15.405 16.027-5.494 2.66-12.814 3.766-31.278 4.727l-14.334.746.334 106c.184 58.3.334 124.675.334 147.5v41.5l-2.387 4.809c-5.445 10.965-16.143 17.69-28.14 17.69-11.916 0-21.919-6.056-26.932-16.306l-3.03-6.193-5.505-140.235c-3.028-77.129-5.506-142.942-5.506-146.25v-6.015h-35.802l-.634 11.25c-.349 6.187-2.85 69.075-5.56 139.75-2.708 70.675-5.15 131.305-5.425 134.733-.989 12.322-8.921 23.006-20.219 27.233-5.49 2.055-13.625 2.542-18.366 1.1zm-709.63-535.159c-13.987-2.337-26.553-9.106-37.887-20.407-13.782-13.743-20.477-30.039-20.477-49.846 0-12.126 1.871-20.41 7.036-31.154 9.095-18.921 26.873-33.107 47.671-38.04 10.782-2.558 28.125-1.687 38.793 1.947 42.956 14.631 61.434 64.847 38.282 104.038-7.378 12.49-20.989 24.126-34.394 29.404-11.604 4.57-26.623 6.131-39.025 4.058zM661 593.271c-9.503-.889-14.578-2.346-24-6.89-39.811-19.205-51.963-70.663-25.193-106.685 8.808-11.852 23.644-21.785 38.693-25.906 8.874-2.43 27.116-2.432 36-.003 25.508 6.972 44.637 26.642 51.135 52.579 4.085 16.307 1.205 37.012-7.167 51.52-14.227 24.657-40.588 38.084-69.468 35.385zM315.842 303.975c-34.998-6.688-61.273-31.375-69.486-65.288-2.91-12.012-2.882-29.527.064-40.801 6.576-25.16 23.628-46.04 46.525-56.967 13.986-6.674 20.475-8.038 38.055-8.002 17.476.036 23.168 1.258 37.055 7.956 27.244 13.14 44.906 38.14 48.505 68.656 4.255 36.079-15.72 71.476-49.315 87.393-15.013 7.113-36.014 9.994-51.403 7.053zM-114 294.918c-31.804-6.94-56.955-31.089-65.644-63.032-1.756-6.454-2.173-10.706-2.161-22 .013-12.247.348-15.101 2.67-22.797 4.81-15.943 12.1-28.088 23.27-38.765 11.737-11.217 23.735-18.017 38.865-22.026 11.351-3.007 29.795-3.08 41.5-.165 32.29 8.044 56.642 32.687 64.07 64.836 1.88 8.13 2.111 11.344 1.639 22.694-.641 15.402-2.17 21.775-8.254 34.393-11.08 22.98-32.675 40.378-57.455 46.288-9.994 2.384-28.91 2.666-38.5.574z" fill="#eeeff3"/></g></svg>