<svg xmlns="http://www.w3.org/2000/svg" width="65pt" height="68" viewBox="0 0 65 51"><g id="surface1" fill="#1e90ff"><path d="M19.488 5.246c-.902.102-1.793.664-2.336 1.48l-.16.243-.324-.32c-.45-.442-.773-.594-1.344-.633-.433-.024-.508-.012-.879.175-.226.106-.488.293-.582.407-.234.277-.476.824-.515 1.152-.043.422-.051.426-.286.355-.374-.109-1.078-.074-1.484.079-.476.18-1.008.703-1.262 1.238-.261.543-.3 1.367-.097 1.973.21.632.922 1.507 1.219 1.507.117 0 .242-.125.242-.242 0-.05-.184-.285-.414-.535-.54-.59-.692-.973-.653-1.68.028-.39.07-.59.192-.832.48-.937 1.476-1.304 2.398-.886.55.25.617.191.649-.602.02-.535.043-.664.195-.926a1.377 1.377 0 011.738-.554c.395.164.637.414.848.847.246.524.43.485.742-.133.258-.523.863-1.117 1.39-1.367.407-.191.489-.21 1.07-.21.571 0 .669.019.977.179.66.351 1.145 1.027 1.399 1.96.113.423.246.638.387.638.027 0 .093-.055.152-.121.102-.114.102-.145.008-.524-.262-1.035-.945-2.012-1.653-2.371-.597-.297-.976-.367-1.617-.297zm0 0"/><path d="M27.95 5.703l-1.227.399v1.441c0 .793-.02 1.789-.035 2.203l-.047.77-1.086.3c-.594.164-1.645.457-2.32.657-.68.191-1.712.48-2.29.636-.574.168-1.082.329-1.133.368-.046.035-.636.808-1.316 1.71-.672.907-1.254 1.66-1.289 1.68-.031.028-.133-.101-.223-.281a3.827 3.827 0 00-.894-1.2c-1.02-.945-2.442-1.085-3.8-.378-.993.512-1.86 1.61-1.981 2.5-.028.164-.07.312-.094.332-.035.015-.18-.067-.332-.188-.73-.601-1.567-.906-2.367-.863-.446.027-.598.066-.996.262-1.079.539-1.778 1.808-1.676 3.054.039.485.234 1.114.457 1.465.09.14.164.282.172.317.011.047-.23.078-.68.09-1.106.039-2.094.43-2.813 1.113l-.332.305v1.003l.27-.37c.5-.673 1.375-1.22 2.277-1.41.453-.098 1.38-.09 1.93.01a.42.42 0 00.313-.058c.171-.125.101-.343-.254-.758-1.286-1.507-.82-3.82.875-4.34.957-.292 1.93.067 2.996 1.106.285.277.547.5.586.5.156 0 .203-.191.218-.902.028-.696.04-.758.262-1.219.406-.824 1.309-1.527 2.223-1.719.547-.12 1.304-.043 1.738.168.5.246 1.086.84 1.348 1.38.37.777.691.234-3.106 5.292-1.86 2.48-3.676 4.895-4.039 5.367-.355.473-.629.867-.601.875.09.032 21.48-3.61 21.53-3.668.028-.023 2.946-3.902 6.481-8.609 3.532-4.707 6.551-8.727 6.711-8.93.157-.199.274-.379.258-.394-.016-.016-.766.183-1.676.437-.906.262-2.277.653-3.047.871-1.441.403-2.855.805-5.71 1.618l-1.653.464-.015 2.825-.016 2.828-.613.843c-.34.465-.86 1.176-1.157 1.579l-.547.734-.03-6.297-.032-6.305zm14.562 4.883a90.534 90.534 0 00-1.371 1.914c-.051.102-.07 1.758-.07 6.04v5.894l1.413.304c.774.176 1.461.328 1.524.348.101.023.11-.129.11-2.55 0-4.044.073-9.583.132-9.524.05.05.664 1.379 1.207 2.593l.246.563v9.293l1.004.207c.543.113 1.016.207 1.04.203.026 0 .058-1.133.066-2.512l.015-2.504.203.415c.11.23.598 1.293 1.086 2.367.488 1.07 1.137 2.484 1.438 3.14l.543 1.2v6.007c0 4.758.02 6.004.082 6.004.039.004 1.406.09 3.03.184 2.825.172 2.962.18 3.204.078.488-.21.922-.883 1.094-1.695.203-.98-.13-1.942-.852-2.465-.152-.113-.265-.215-.25-.235.016-.02.258-.109.528-.207a4.07 4.07 0 00.789-.367c1.726-1.203 1.93-3.758.41-5.277-.309-.32-1.121-.813-1.324-.813-.204 0-.18-.14.062-.402.52-.566.824-1.539.75-2.402-.18-2.055-1.723-3.653-3.531-3.653-.297 0-.653.02-.778.04l-.23.042v-.683c0-.805-.11-1.29-.426-1.895-.57-1.101-1.543-1.734-2.633-1.726-.234 0-.59.05-.789.113-.304.098-.347.129-.316.246.02.074.465 1.078.996 2.242 1.977 4.325 3.297 7.254 3.297 7.313 0 .023-.156.133-.332.242-.184.102-.445.258-.578.332l-.235.14-.152-.35c-.09-.192-.477-1.048-.871-1.903-.863-1.903-1.262-2.785-1.738-3.828-.59-1.301-.914-2.016-2.02-4.438l-1.726-3.8a2321.486 2321.486 0 00-2.727-5.993c-.016-.012-.605.777-1.32 1.758zm-4.344 5.945l-1.16 1.578V23.5l.46.098c.25.054.778.172 1.157.254.387.082.703.148.719.14.004-.012.004-2.05 0-4.527l-.02-4.516zm0 0"/><path d="M32.188 24.715c-.157.215-.297.39-.32.39-.04 0-8.622 1.36-11.493 1.82-.54.083-2.996.473-5.457.86-2.465.39-4.55.723-4.652.742l-.172.04v9.03l1.914.11c2.484.148 7.11.414 13.16.781 2.652.157 4.887.285 4.973.285.136 0 .136.008.136.895v.895h-.359c-.203 0-2.05-.07-4.113-.16-4.059-.173-5.617-.235-13.903-.575-3.004-.121-6.457-.27-7.68-.32-1.218-.051-2.3-.094-2.394-.094-.172 0-.18.012-.18.316 0 .301.016.32.16.32.2 0 11.813.415 14.25.513.962.039 3.805.14 6.317.222 2.516.09 5.262.188 6.105.223.848.035 1.594.066 1.672.066.125 0 .125.031.125 1.914v1.918H1.648v2.746h.149c.074 0 1.453-.023 3.058-.062 1.606-.031 5.008-.11 7.555-.16 2.55-.051 7.352-.153 10.664-.223l13.836-.289c7.942-.164 14.442-.293 20.09-.414 1.727-.031 3.695-.082 4.367-.102l1.219-.039v-1.457H44.117v-7.09c0-5.629-.02-7.09-.078-7.09-.043 0-.71-.105-1.477-.226-.769-.121-1.417-.223-1.44-.223-.032 0-.052 3.29-.052 7.317v7.312H32.5l-.012-10.289-.02-10.293zm0 0"/><path d="M37.008 34.36c0 2.632.02 4.804.05 4.816.024.02.551.05 1.172.078l1.125.05V34.63c0-2.57-.02-4.672-.039-4.672-.05 0-1.91-.312-2.132-.355l-.176-.04zm8.695.953v4.343l.688.04c.37.015.855.05 1.078.07l.406.023-.05-4.227c-.02-2.328-.048-4.238-.052-4.242-.007-.008-.394-.07-.863-.148-.472-.07-.933-.145-1.027-.164l-.18-.04zm5.395 6.327c0 .192.007.2.312.2.309 0 8.238.281 10.149.36l1.027.034v-.164c0-.148-.023-.168-.203-.168a2835 2835 0 01-10.281-.422l-1.004-.042zm0 0"/></g></svg>