<svg xmlns="http://www.w3.org/2000/svg" width="25pt" height="25pt" viewBox="0 0 25 25"><path d="M24.55 9.367c-.03.156-.03.317-.093.461-.355.86-1.02 1.57-1.512 2.36-.629 1.011-6-1.165-5.308-2.512.261-.5 1.277-1.88 1.355-2.43.07-.496-.586-.883-1.191-.934-1.594-.125-3.63-.011-5.32 0h-.286c-1.692-.011-3.727-.125-5.321 0-.605.051-1.262.438-1.191.934.078.555 1.093 1.93 1.355 2.43.695 1.347-4.68 3.523-5.312 2.515-.489-.793-1.153-1.504-1.508-2.363-.063-.144-.063-.305-.094-.46-.79-3.52 2.25-7.114 6.82-7.481a81.41 81.41 0 015.25-.254V1.62c.051.004.094.008.14.008.052 0 .095-.004.145-.008v.012c1.75.031 3.5.11 5.25.254 4.57.367 7.61 3.96 6.82 7.48zm-3.14 12.149c.05.847-.5 1.535-1.23 1.535H4.496c-.726 0-1.281-.692-1.23-1.535l.457-7.7c1.664-.39 3.785-1.406 4.558-2.671.43-.704.473-1.497.121-2.18-.09-.172-.257-.442-.449-.738v-.004l-.012-.02h8.54l-.012.031c-.11.258-.145.454-.125.602-.024.047-.059.101-.078.137-.348.675-.301 1.468.129 2.172.77 1.265 2.894 2.28 4.554 2.668zm-6.074-7.993a4.218 4.218 0 00-5.961 0 4.225 4.225 0 000 5.961 4.22 4.22 0 005.465.418l-1.027-1.03a2.784 2.784 0 01-3.426-.4 2.791 2.791 0 010-3.94 2.791 2.791 0 013.941 0 2.784 2.784 0 01.406 3.41l1.032 1.03a4.214 4.214 0 00-.43-5.449zm0 0" fill="#fff" id="surface1"/></svg>